<svg xmlns="http://www.w3.org/2000/svg" xmlns:svg="http://www.w3.org/2000/svg" id="svg8" width="619.876" height="481.543" version="1.1" viewBox="0 0 164.009 127.408"><metadata id="metadata5"/><g id="layer1" transform="translate(2.3748408e-5,-1.5495137)"><path id="path845" d="M 76.546875,195.28516 C 45.060738,195.39431 8.8353563,218.44533 1.6503906,250.42969 -13.099216,316.08853 75.861328,475 75.861328,475 c 0,0 88.925982,-161.09833 73.527342,-227.42773 C 142.2407,216.7825 106.91066,195.1799 76.546875,195.28516 Z m -0.957031,35.26562 A 37.795274,37.795274 0 0 1 113.38672,268.3457 37.795274,37.795274 0 0 1 75.589844,306.14258 37.795274,37.795274 0 0 1 37.794922,268.3457 37.795274,37.795274 0 0 1 75.589844,230.55078 Z" transform="matrix(0.26458333,0,0,0.26458333,1.2951614e-8,1.1338639)" style="fill:#000;fill-opacity:1;stroke:none;stroke-width:.979007px;stroke-linecap:butt;stroke-linejoin:miter;stroke-opacity:1"/><path style="fill:none;stroke:#000;stroke-width:10.6028;stroke-linecap:round;stroke-linejoin:miter;stroke-miterlimit:4;stroke-dasharray:none;stroke-opacity:1" id="path910" d="m 36.960599,123.6564 c 16.471739,-0.0669 32.942388,-0.13381 39.207714,-8.08391 6.265326,-7.9501 2.324893,-23.782514 9.647117,-31.992136 7.322224,-8.209621 25.90625,-8.794692 44.49011,-9.379758"/><a id="a849-5" transform="translate(123.759,-52.323016)"><path id="path847-1" d="M 30.032738,71.853249 A 10.016369,10.016369 0 0 1 20.016369,81.869617 10.016369,10.016369 0 0 1 10,71.853249 10.016369,10.016369 0 0 1 20.016369,61.83688 10.016369,10.016369 0 0 1 30.032738,71.853249 Z" style="fill:#fff;fill-opacity:1;stroke:none;stroke-width:2.48186;stroke-linecap:round;stroke-opacity:1"/></a><path id="path845-7" d="m 144.26208,1.549615 c -8.33071,0.02888 -17.91534,6.127795 -19.81636,14.590324 -3.9025,17.372234 19.63497,59.41756 19.63497,59.41756 0,0 23.52834,-42.623933 19.45411,-60.173586 C 161.64357,7.237453 152.29583,1.521765 144.26208,1.549615 Z m -0.25322,9.330696 a 9.9999996,9.9999996 0 0 1 10.00042,9.999905 9.9999996,9.9999996 0 0 1 -10.00042,10.000424 9.9999996,9.9999996 0 0 1 -9.9999,-10.000424 9.9999996,9.9999996 0 0 1 9.9999,-9.999905 z" style="fill:#000;fill-opacity:1;stroke:none;stroke-width:.259029px;stroke-linecap:butt;stroke-linejoin:miter;stroke-opacity:1"/></g></svg>