<svg xmlns="http://www.w3.org/2000/svg" xmlns:svg="http://www.w3.org/2000/svg" id="svg8" width="210mm" height="210mm" version="1.1" viewBox="0 0 210 210"><metadata id="metadata5"/><g id="layer1"><rect style="fill:red;stroke:#000;stroke-width:.201792" id="rect833" width="209.798" height="209.798" x=".101" y=".101" ry="30.509"/><path id="path837" d="m 104.97344,57.507604 a 54.900856,54.90085 0 0 0 -54.874174,54.900566 54.900856,54.90085 0 0 0 54.900524,54.90104 54.900856,54.90085 0 0 0 54.90104,-54.90104 54.900856,54.90085 0 0 0 -54.90104,-54.900566 54.900856,54.90085 0 0 0 -0.0264,0 z m -0.076,17.000513 a 37.797618,37.797618 0 0 1 37.79769,37.797733 37.797618,37.797618 0 0 1 -37.79769,37.79769 37.797618,37.797618 0 0 1 -37.79769,-37.79769 37.797618,37.797618 0 0 1 37.79769,-37.797733 z" style="fill:#fff;stroke:#000;stroke-width:0;stroke-miterlimit:4;stroke-dasharray:none"/><rect style="fill:#fff;stroke:#000;stroke-width:0;stroke-miterlimit:4;stroke-dasharray:none" id="rect846" width="15.795" height="70.676" x="97.103" y="32.887"/></g></svg>