<svg xmlns="http://www.w3.org/2000/svg" xmlns:svg="http://www.w3.org/2000/svg" id="svg1600" width="437.751" height="350.032" version="1.1" viewBox="0 0 115.822 92.613"><metadata id="metadata1597"/><g id="layer1" transform="translate(-24.058334,-98.812055)"><ellipse style="opacity:.994;fill:#fff;fill-opacity:1;stroke:#000;stroke-width:3;stroke-miterlimit:4;stroke-dasharray:none;stroke-opacity:1" id="path839" cx="98.844" cy="150.388" rx="39.536" ry="39.536"/><path style="fill:none;stroke:#000;stroke-width:.264583px;stroke-linecap:butt;stroke-linejoin:miter;stroke-opacity:1" id="path841" d="M 97.980657,107.57005 Z"/><path style="fill:none;stroke:#000;stroke-width:0;stroke-linecap:butt;stroke-linejoin:miter;stroke-miterlimit:4;stroke-dasharray:none;stroke-opacity:1" id="path973" d="M 77.976132,165.20136 C 115.9284,128.4518 112.053,154.37695 112.053,154.37695 l -15.100731,15.368 3.207231,-1.20272"/><path style="fill:none;stroke:#5c5c5c;stroke-width:1.83952;stroke-linecap:round;stroke-linejoin:miter;stroke-miterlimit:4;stroke-dasharray:none;stroke-opacity:1" id="path975" d="m 98.914528,125.16028 v 25.24989 h 17.724312"/><path style="opacity:.997;fill:#5c5c5c;fill-opacity:1;stroke:#5c5c5c;stroke-width:3;stroke-linecap:round;stroke-miterlimit:4;stroke-dasharray:none;stroke-opacity:1" id="path1127" d="m 100.01513,150.3709 a 0.74835467,0.74835467 0 0 1 -0.747605,0.74835 0.74835467,0.74835467 0 0 1 -0.749101,-0.74686 0.74835467,0.74835467 0 0 1 0.74611,-0.74985 0.74835467,0.74835467 0 0 1 0.750596,0.74536 z"/><path id="rect2842" d="m 92.866682,98.812055 v 6.047695 h 2.999817 v 6.01203 h 6.000151 v -6.01203 h 3.00033 v -6.047695 z" style="fill:#000;fill-opacity:1;stroke-width:2.18665;stroke-linecap:round"/><rect style="fill:#000;fill-opacity:1;stroke-width:2.037;stroke-linecap:round" id="rect2849" width="28.915" height="2.835" x="30.883" y="130"/><rect style="fill:#000;fill-opacity:1;stroke-width:2.037;stroke-linecap:round" id="rect2849-0" width="28.915" height="2.835" x="26.412" y="140"/><rect style="fill:#000;fill-opacity:1;stroke-width:2.037;stroke-linecap:round" id="rect2849-0-8" width="28.915" height="2.835" x="24.058" y="150"/><rect style="fill:#000;fill-opacity:1;stroke-width:2.037;stroke-linecap:round" id="rect2849-0-8-6" width="28.915" height="2.835" x="26.412" y="160"/><rect style="fill:#000;fill-opacity:1;stroke-width:2.037;stroke-linecap:round" id="rect2849-0-8-6-6" width="28.915" height="2.835" x="30.883" y="170"/></g></svg>